/* XPM */
static char *_10396ce46c54641fe0cd55308dc705cgJlscNJKWex4mUOn[] = {
/* columns rows colors chars-per-pixel */
"64 64 220 2 ",
"   c #9CAEBA",
".  c #A4BCC8",
"X  c #B8C6D1",
"o  c #95A9B4",
"O  c #A4B6C2",
"+  c #2C3C4D",
"@  c #2D314E",
"#  c #32374F",
"$  c #333A4E",
"%  c #2C3654",
"&  c #253C56",
"*  c #2C3A55",
"=  c #2D365B",
"-  c #263B5B",
";  c #2D3A5B",
":  c #323555",
">  c #323A55",
",  c #383B56",
"<  c #33365B",
"1  c #39365D",
"2  c #323A5B",
"3  c #393A5C",
"4  c #383554",
"5  c #312E59",
"6  c #00007E",
"7  c #2C3661",
"8  c #2D3C62",
"9  c #273F63",
"0  c #333663",
"q  c #333A62",
"w  c #383C62",
"e  c #4F395F",
"r  c #29404C",
"t  c #2B4052",
"y  c #2D405C",
"u  c #274155",
"i  c #32415B",
"p  c #374557",
"a  c #1B5B7F",
"s  c #264363",
"d  c #2A4264",
"f  c #2C436B",
"g  c #27436A",
"h  c #244D7A",
"j  c #274A75",
"k  c #25577C",
"l  c #30456D",
"z  c #51434A",
"x  c #454859",
"c  c #454759",
"v  c #575656",
"b  c #7D4557",
"n  c #674B5B",
"m  c #666157",
"M  c #786B56",
"N  c #66614D",
"B  c #4D5A6B",
"V  c #4F5B75",
"C  c #495774",
"Z  c #535C78",
"A  c #464C6C",
"S  c #55627A",
"D  c #86495F",
"F  c #9C4C5D",
"G  c #AA475A",
"H  c #B1475E",
"J  c #A55755",
"K  c #8D784E",
"L  c #887551",
"P  c #937156",
"I  c #AA4B63",
"U  c #A64B64",
"Y  c #CB5158",
"T  c #F24E5D",
"R  c #F04F55",
"E  c #EC525D",
"W  c #EC5658",
"Q  c #F2535E",
"!  c #F65756",
"~  c #EF4E5D",
"^  c #EC4E62",
"/  c #F24F60",
"(  c #F84D6C",
")  c #EC5364",
"_  c #EC526B",
"`  c #E85564",
"'  c #F25463",
"]  c #F15469",
"[  c #F05A67",
"{  c #F15471",
"}  c #FDC63E",
"|  c #F5CB3C",
" . c #FDCB3C",
".. c #F8D03A",
"X. c #998849",
"o. c #968653",
"O. c #A38851",
"+. c #C5A147",
"@. c #DDAD49",
"#. c #EDBB49",
"$. c #E8BC46",
"%. c #F8BD48",
"&. c #FFC742",
"*. c #FEC642",
"=. c #FFC646",
"-. c #FDC644",
";. c #F7CB42",
":. c #FFC943",
">. c #FFC842",
",. c #FEC942",
"<. c #FFCA44",
"1. c #FFCB44",
"2. c #FEC946",
"3. c #FECA43",
"4. c #FFC549",
"5. c #FEC949",
"6. c #FFCB4B",
"7. c #F5C547",
"8. c #F9D044",
"9. c #FFC651",
"0. c #1E5485",
"q. c #1D5A86",
"w. c #1C5A8C",
"e. c #1D5E98",
"r. c #235584",
"t. c #225C84",
"y. c #24598C",
"u. c #27558B",
"i. c #245A98",
"p. c #1C6E9E",
"a. c #17679B",
"s. c #1A6D8F",
"d. c #1E6EA1",
"f. c #146DA7",
"g. c #0C75AD",
"h. c #1E71A2",
"j. c #1177AD",
"k. c #097DB8",
"l. c #117BB5",
"z. c #1775B7",
"x. c #0E6DAF",
"c. c #226DA5",
"v. c #2171A5",
"b. c #5E6C84",
"n. c #686C87",
"m. c #0105FE",
"M. c #137BC1",
"N. c #0F7EC3",
"B. c #76849B",
"V. c #7886A0",
"C. c #0586CC",
"Z. c #048CCE",
"A. c #0A89CE",
"S. c #0C88CA",
"D. c #0191CE",
"F. c #0C86D4",
"G. c #058CD5",
"H. c #098BD5",
"J. c #0B86DA",
"K. c #058DDB",
"L. c #0A8CDA",
"P. c #0586D5",
"I. c #118ED4",
"U. c #118DDD",
"Y. c #1484D9",
"T. c #0391D4",
"R. c #0A91D4",
"E. c #0391DA",
"W. c #0A91DA",
"Q. c #0099DD",
"!. c #048EE1",
"~. c #0A8CE2",
"^. c #0591E1",
"/. c #0992E4",
"(. c #1386E1",
"). c #0BA3E6",
"_. c #0AA4E9",
"`. c #0DA8EC",
"'. c #05A7E8",
"]. c #8D97A9",
"[. c #9099AA",
"{. c #919CB2",
"}. c #8E9AB0",
"|. c #8F9BA3",
" X c #B5B9C5",
".X c #ACC1C2",
"XX c #BFCDCE",
"oX c #BECCDA",
"OX c #BDCED4",
"+X c #BED1D4",
"@X c #BCD1CC",
"#X c #C3C9CD",
"$X c #C3CCD4",
"%X c #C6CAD9",
"&X c #C3D3D3",
"*X c #C4D4DB",
"=X c #CBD4DD",
"-X c #C6D6D6",
";X c #C9D4D6",
":X c #D9E4DE",
">X c #CED6E1",
",X c #DBDEEB",
"<X c #D9DEE6",
"1X c #C8CFE1",
"2X c #E4DEF2",
"3X c #E1DFEA",
"4X c #D5E3E4",
"5X c #DAE2E5",
"6X c #D5E2EB",
"7X c #DBE2EB",
"8X c #D6E8E9",
"9X c #DAE2F1",
"0X c #E1E1EE",
"qX c #EDF4F4",
"wX c #EFF4F9",
"eX c #EBF9FB",
"rX c #F2F5F7",
"tX c #F0F5FA",
"yX c #F3F9FD",
"uX c #F5F8F7",
/* pixels */
"                      o o                                                       .   . X     o   .   X     X   .                 ",
"                            X                                                   X           o     o   X . o X                   ",
"                  . .   .     o                                                   X   o   .   X X .   X       .                 ",
"                                                                                .   . X     .               .                   ",
"                o X X   > 0 2 * ; ; ; ; ; ; ; ; ; ; ; ; ; ; ; ; ; ; ; ; ; ; ; ; 8 2 ; 2 + - 2 ; >   . . X X   o                 ",
"                X . X - m ,.%. .2.2.2.2.2.2.2.2.2.2.2.2.2.2.2.2.2.2.2.2.2.2.2.2.: * 4.5. .1.=.} =.; 2 o                         ",
"                      1 | 2.5.2.*.*.*.*.*.*.*.*.*.*.*.*.*.*.*.*.*.*.*.*.*.*.*.*.5.M ; } 5. .6.2. .6.v *     .                   ",
"                    o ; =. .*.2.,.,.,.,.,.,.,.,.,.,.,.,.,.,.,.,.,.,.,.,.,.,.,.,.,.} ; X.} 9.,.2.2.4...< * o                     ",
"                . X     * x x x x x x x x x x x x x x x x x x x c x c p x c o.} 5.} =.; ,.} 2.,.2.=.=.2.* o                     ",
"                X   . o . + < +.#.#.#.#.#.#.#.#.#.#.#.#.#.#.#.#.$.#.#.#.$.$.m < 5. .;.q 4.=.=.1.8.,.2. .*   . X                 ",
"                .     . 2 p 1.| ,.,.,.,.,.,.,.,.,.,.,.,.,.,.,.,.1.,.5.} *.;.6.K N ,.,.K X.2. .*.4.}  .;.v i . .                 ",
"                    .   * 6.4.5.,.,.,.,.,.,.,.,.,.,.,.,.,.,.,.,.} 2.;.9.} ,. .2.8 ;. .+.m 2.=.,.} 1.4.1.K *   o                 ",
"                  X   . : =.}  .,.,.,.,.,.,.,.,.,.,.,.,.,.,.,.,.,.} ,.5.;.*.} O.v 2.} K X.| 6. . .5.} 5.v 2 X                   ",
"                o     2 M | 1.4.,.,.,.,.,.,.,.,.,.,.,.,.,.,.,.,.2.}  .*.*.1.+.=  .2.;.2 ,.2.7.1.2.} 4.=.u     .                 ",
"                X     = M 2.,.@.2 2 2 2 2 2 2 2 2 2 2 2 2 2 2 2 7 ; - ; q % x 2.*.4.6.= ,.1. .=.*.6.4.8.: . X                   ",
"                  o X   < =. .,.,.,.,.,.,.,.,.,.,.,.,.,.,.,.,.,.,.,.=.*.1.2.*.,.2.| , P ;.2.;.5.2. .} ; + o   X                 ",
"                        2 } ,.| 2.2.2.2.2.2.2.2.2.2.2.2.2.2.2.2.,.*.,.1.} 2.,.,. .L ; 5.;.1.4.2.2.9.v * .                       ",
"                      X o ; %.=.,.,.,.,.,.,.,.,.,.,.,.,.,.,.,.,.5.5.2.2.1.*.1.,.> 2 =.| *.5. . . .; ; o   .                     ",
"                X   X   ; - y 8 ; ; ; ; ; ; ; ; ; ; ; ; ; ; ; ; * > * = ; q * * < u 7 2 * % > 2 + 5 . X X                       ",
"                  . . - Z tXrXqXwXwXwXwXwXwXwXwXwXwXwXwXwXwXwXwXwXyXtXtXyXwXyXwX; # #X%X$XoXoX$XoX< * o     .                   ",
"                  . o * qXuXtXuXtXtXtXtXtXtXtXtXtXtXtXtXtXtXtXtXtXwXqXuXqXtXwXtXtXn.w @XOX#X&X*X#X%XA 2 . o X                   ",
"                .   o y tXtXyXwXtXtXtXtXtXtXtXtXtXtXtXtXtXtXtXtXtXtXtXwXwXtXwXtXwXtX- |.OX+X$X#X$XOXXX; : . o                   ",
"                X .     2 C C B V V V V V V V V V V V V V V V V V V V Z Z B {.eXrXeXrX> $X%X$X$X+X$X$X-X= X .                   ",
"                    X . X w =  X>X>X>X>X>X>X>X>X>X>X>X>X>X>X>X>X=X=X>X>X>X>XZ > rXqXtX0 XXOX#XOX$X$X$X$X:   .                   ",
".   0 2 ; 2 > q 2 ; 2 2 * > {.}.[.[.[.[.[.[.[.[.[.[.[.[.[.[.[.[.[.].[.[.].[.[.B V {.].S S B.B.B.B.B.V.B.i ; 2 ; 0 p - > ; ;     ",
"t q q.p.c.f.h.p.h.h.d.d.p.p.p.p.d.d.d.d.d.d.d.d.d.d.d.d.d.d.d.d.d.v.d.d.d.d.v.d.d.d.d.d.d.h.h.h.p.p.p.h.p.h.p.d.h.p.c.c.d.u.= X ",
"; ).'.'._.)._._.)._.)._._.`.)._._._._._._._._._._._._._._._._._._._._._.`._._.`._.)._.`._._._.).).)._.)._.)._._._._._.'.'.)._.= ",
"* `.'.).H.I.T.P.K.K.K.K.K.G.W.G.G.G.G.G.G.G.G.G.G.G.G.G.G.G.G.G.W.G.W.G.G.K.K.G.G.W.K.G.G.K.G.K.K.G.K.W.G.K.W.K.J.H.F.H.G.T.L.> ",
"0 )._.~.!.F.H.E.H.G.G.G.G.H.G.H.G.G.G.G.H.H.H.G.G.G.H.H.G.G.G.G.G.H.G.H.H.G.G.H.H.G.G.H.H.G.K.H.H.G.G.W.G.H.G.G.K.R.L.!.K.H.Z.= ",
"X % - 2 ; - 2 % ; 2 2 2 2 2 = 2 ; ; ; ; 2 2 2 2 ; ; ; 2 ; ; ; ; ; 2 = 2 q ; = = ; ; 2 2 ; ; 2 ; - ; ; ; ; - - ; ; = ; - > > * . ",
"    .   > h T.~.H.G.G.G.G.G.W.G.H.K.G.G.H.H.K.K.K.K.H.H.H.G.G.G.G.H.H.H.G.G.W.W.W.H.G.G.H.H.G.H.H.G.G.G.H.H.H.G.H.H.h >       . ",
"          ; F.G.G.G.K.W.G.G.K.K.H.G.G.G.G.K.K.K.K.K.H.H.H.G.G.G.H.K.G.H.G.H.G.G.K.K.K.K.K.K.K.K.G.H.H.H.G.G.G.H.H.H.-   .       ",
"  . X . X > F.K.K.L.K.G.L.K.!.H.K.T.G.G.L.G.W.K.K.L.Z.K.L.G.H.L.L.K.G.L.K.Z.L.K.E.W.G.W.G.G.T.K.H.F.H.K.K.H.K.H.K.F.;   . X .   ",
".         ; Q.H.G.4 * q > * > G.K.; q > : d % H.H.: ; 2 : - * H.H.> 2 % ; 2 % L.H.@ 8 : * q 2 J.E.- * 8 2 * ; K.H.Q.;         . ",
".     X . 8 S.H.H.8 d J ` Q = H.E.< T E ' / 2 R.G.1 E ` ' E 9 G.G.9 E ' ' T ; H.G.2 / ) E ~ < E.G.w '     7 i H.H.S.; .       . ",
"X   .     > 0.H.G.f.> o ' E 0 R.G.2 ] ) E Q 8 J.K.y E / ' Q < K.K.< Q ' ) Q ; K.J.9 Q E ) _ ; G.K.: W '   0 x.H.L.0.,     .   X ",
"    .       2 K.H.K.8   ) E 3 F.H.q.F { ` E - H.Z.: ' ^ ^ ' 2 Z.Z.; ' ^ ) ' : Z.G.- E ) { F q.H.Y.w ' T ! 8 G.K.K.2 o     .     ",
"o     o   X > K.G.K.- : q t n i.L.k.e G I H * W.~.1 G U I G ; ~.^.- G I I G ; ~.W.* H I G e k.U.t.n I I G ; G.H.G.>           o ",
"  X   o   X y G.L.K.t.q.y.0.u.H.K.G.u.q.u.k r.K.T.l.w.r.t.q.i.G.G.i.r.q.r.y.k.G.K.r.k w.q.u.D.K.L.w.0.q.0.k H.G.G.y X   o   X   ",
".       O . = H.K.D.L.K.F.E.K.G.H.G.T.K.E.H.L.K.L.G.H.G.G.H.Z.H.H.D.H.H.G.H.G.L.E.L.F.K.H.G.G.K.D.H.L.L.L.E.G.~.H.= . O       . ",
"  X         * y.G.~.- = 1 * > > H.K.< 2 : ; < l.H.h : 2 ; * 9 H.H.8 t = > ; j H.l.= - , < = K.G.* < < - + < L.G.y.*       . X   ",
"o         .   s H.K.a y ) ^ [ 8 R.K.; ` W ] D i.K.w.U ) T ) % H.H.* ` T ' U w.K.e.D ( W ` ; H.W.2 ^ ] ] G r.G.G.s   .         o ",
"    . X     . 2 L.Z.C.2 ) ` Q % K.H.0 ` ) ) Y h G.f.b _ [ _ 8 H.H.q _ [ ` b d.G.h Y ) ) ` < G.K.; ) ( R t H.L.G.2 .     X .     ",
".       X   . % H.F.!.< ) E E 2 R.F.i ` ) ] Q : J.M.z E ) Q 2 Z.Z.2 ' ' E z M.K.> W _ Q ) ; H.H.* Q E ' w J.Z.H.% .           . ",
".     X       2 ~.G.G.; % 2 q < K.H.2 > % - ; 2 H.G., ; < * ; L.H.2 * 1 ; , H.H.2 2 * = : > L.G.9 * > = ; E.~.G.;             . ",
"  o       .   * a.H.G.L.T.F.Z.G.G.W.G.H.E.R.K.L.T.G.K.(.G.W.L.Z.Z.~.T.K.Y.K.G.T.K.K.T.E.H.K.H.K.H.H.H.E.R.E.K.a.*   . .     X   ",
"    o   X     o 2 G./.a.g s d f z.G.K.f u 8 8 j H.W.8 f s s s E.E.9 s d f - U.G.l f 8 * f T.G.z.s d d d a.G.W.> o     X   o     ",
"    . .         ; H.G.8 #X=X-X=X< E.l.Z 1X*X-X* K.G.* =X*X;X> J.H.> &X*X=X* K.K.* -X>X>XZ l.W.: %X=X*X- 3 K.H.;         . .     ",
"                > H.L.j.b.5X,X9X< K.G.2 5X6X6X2 H.G.i ,X8X7X< L.L.= 7X8X<Xy G.H.2 6X6X5X* G.E.< 6X,X5Xb.g.L.G.;                 ",
"                - E.H.H.:   5X4X2 G.W.- ,X6X5X2 W.K.< 4X2X7X> G.G.> 7X2X4X< J.E.2 5X6X7X- R.G.2 4X8X7X< L.P./.*                 ",
"                2 p.I.L.2 ; * 2 > E.F.; > 2 2 * L.K.% > - & ; W.L.- & ; 3 = K.H.* < q > ; F.K.> < ; = = K.R.a.;                 ",
"                  > G.G.K.F.W.G.K.T.~.~.E.G.K.K.G.G.R.K.H.I.T.J.J.T.I.L.L.W.H.G.K.K.G.K.L.~.G.H.H.R.L.K.G.G.*                   ",
"                  q H.^.t $ 7 q : U.L.% , 2 * = K.H.- = - % * L.U.- * - = - H.K.= y = , * L.W.: = = + t K.H.=                   ",
"                  < K.~.= 7X7X4Xb.j.G.> 6X6X<X> K.G.8 7X6X9X8 G.G.q 9X6X7X8 G.H.> 4X7X8X> P.j.n.5X0X7X; K.W.2                   ",
"                  > W.K.k {.7X4X.Xh H.y 6X6X8X7 Z.W.* 6X5X5X> K.K.: 5X4X7X* W.A.0 8X9X6X* W.j .X6X6X}.t.K.H.#                   ",
"                  ; g.L.G.2 4X7X9X2 G.; 3X,X:XS N.F.; 7X<X5X2 K.K.2 5X<X0X; G.M.S :X<X0X; G.< 7X7X5X= H.L.g.8 X                 ",
"                  v * W.L.* < = * $ S.f., = $ 8 F.P.> * 2 9 4 H.G.: 8 ; * 2 F.F.8 $ = : f.S.$ * ; 8 ; H.K.= v                   ",
"                . . * G.J.G.G.W.~.G.!.G.H.K.W.G.K.E.T.!.G.H.Z.K.E.A.G.H.!.G.G.K.G.E.K.H.G.!.G.~.R.H.D.H.G.7 .                   ",
"                    6 ; C.W.L.K.H./.C.G.E.G.K.~.H.G.^.H.K.K.!.G.G./.K.K.H.!.G.H.~.K.Z.E.G.G./.H.H.G.H.C.* m.  .                 ",
"                    X . < 2 * < + < - 2 < ; # 1 * ; = r w > < > > < : 2 + < 2 * 1 > ; < 2 - < r 7 * i 2 .                       ",
"                  X .         . X   . .   o       .   X .   X X . X   . X   .       o   . .   X       X   .   .                 ",
"                    o   o X     .   X X       X                           .     X       X     . . X   .                         ",
"                          o       .     .   .   X       o     X     . o       X   .   .     .     . X     . o X                 ",
"                        . . .       . X                       .   .     X     .         X .   X                                 "
};
