/* XPM */
static char *_fa43ff8ba094b2baf22868c4396d134[] = {
/* columns rows colors chars-per-pixel */
"64 64 156 2 ",
"   c #9CAEBA",
".  c #A4BCC8",
"X  c #B8C6D1",
"o  c #95A9B4",
"O  c #A4B6C2",
"+  c #57555D",
"@  c #58575E",
"#  c #5A595F",
"$  c #595663",
"%  c #5D5C62",
"&  c #5C576B",
"*  c #524974",
"=  c #5E5776",
"-  c #605F65",
";  c #655F7B",
":  c #626166",
">  c #66646A",
",  c #68676C",
"<  c #6A696E",
"1  c #666272",
"2  c #696670",
"3  c #6D6B72",
"4  c #6A657C",
"5  c #6E6B79",
"6  c #706F75",
"7  c #716D7D",
"8  c #727176",
"9  c #74737B",
"0  c #78777C",
"q  c #7A797E",
"w  c #6C6285",
"e  c #6E6982",
"r  c #746E84",
"t  c #746E8A",
"y  c #767283",
"u  c #7A7484",
"i  c #7D7B83",
"p  c #77718D",
"a  c #7A748A",
"s  c #7E7B8A",
"d  c #807E85",
"f  c #827D8D",
"g  c #857E91",
"h  c #828286",
"j  c #85838C",
"k  c #88868E",
"l  c #8A898E",
"z  c #868292",
"x  c #898593",
"c  c #8D8B94",
"v  c #878298",
"b  c #8B8798",
"n  c #8E8A99",
"m  c #908E96",
"M  c #918E99",
"N  c #929196",
"B  c #989697",
"V  c #95949B",
"C  c #98969E",
"Z  c #97989C",
"A  c #99999E",
"S  c #9692A0",
"D  c #9996A1",
"F  c #9D9CA3",
"G  c #9994AA",
"H  c #9F9DA8",
"J  c #A09FA5",
"K  c #A19EAB",
"L  c #A2A1A6",
"P  c #A5A4AB",
"I  c #A8A7AD",
"U  c #AAAAAE",
"Y  c #A6A4B1",
"T  c #A9A5B6",
"R  c #ADACB3",
"E  c #B0AFB6",
"W  c #B1AFBA",
"Q  c #B2B1B6",
"!  c #B4B3B9",
"~  c #B8B7BC",
"^  c #BABABD",
"/  c #B7B5C0",
"(  c #BDBCC2",
")  c #C0BFC4",
"_  c #C2C2C5",
"`  c #C4C3C8",
"'  c #C5C4C9",
"]  c #C6C6C8",
"[  c #C7C7C9",
"{  c #C5C4CA",
"}  c #C6C5CA",
"|  c #C6C5CB",
" . c #C7C6CB",
".. c #C5C4C9",
"X. c #C8C7CC",
"o. c #C8C6C9",
"O. c #C9C9C9",
"+. c #C9C9CB",
"@. c #C8C8CA",
"#. c #C9C8CD",
"$. c #CACACC",
"%. c #CBCBCD",
"&. c #CAC9CE",
"*. c #CBCACF",
"=. c #CFCFCD",
"-. c #CCCCCE",
";. c #CDCDCF",
":. c #CBCBCE",
">. c #D1D1CF",
",. c #D3D4CF",
"<. c #CCCBD0",
"1. c #CCCBD1",
"2. c #CDCCD1",
"3. c #CECED0",
"4. c #CFCFD1",
"5. c #CECDD2",
"6. c #CFCED3",
"7. c #CECDD3",
"8. c #D0CFD4",
"9. c #D0CFD5",
"0. c #D3D3D1",
"q. c #D0D0D2",
"w. c #D1D1D3",
"e. c #D2D2D2",
"r. c LightGray",
"t. c #D6D7D2",
"y. c #D1D0D5",
"u. c #D2D2D4",
"i. c #D3D3D5",
"p. c #D2D1D6",
"a. c #D2D1D7",
"s. c #D3D2D7",
"d. c #D4D4D6",
"f. c #D5D5D7",
"g. c gray84",
"h. c #D1D0D8",
"j. c #D3D2DA",
"k. c #D4D3D8",
"l. c #D5D4D9",
"z. c #D6D6D8",
"x. c #D7D7D9",
"c. c #D5D4DA",
"v. c #D6D5DA",
"b. c #D7D6DB",
"n. c #D5D4DC",
"m. c #D8D8DA",
"M. c #D9D9DB",
"N. c #DAD9DF",
"B. c #DADADC",
"V. c #DAD9DA",
"C. c #DEDEE0",
"Z. c #E0E0E2",
"A. c #EDEDEF",
"S. c #F5F4FA",
"D. c #FDFDFF",
"F. c #FEFDFF",
/* pixels */
"                                                                                        X                                       ",
"                                                                                                                                ",
"                                                                                                  X                             ",
"                                                    $.` -.w.-.U R R 5 D R R s $ k R Q x.w.+.`           X                       ",
"                                          X   +.x.! ! ^ ( i.m.d.d.-.i.i.i.x.i.<.4.d.x.x.x.! ^ -.R L U                           ",
"                                            R U ! _ ] -.-.m.x.d.x.N.x.k.d.x.i.N.x.d.x.d.i.d.w.d.i.F k N                         ",
"                                          x.Z.! ^ $.d.d.x.x.i.x.w.w.w.>.t.,.>.w.k.i.i.x.d.d.x.m.x.$.4.C.d.                      ",
"                                        _ _ -.` $.d.w.i.i.i.x.i.h.h.h.n.i.8.x.h.i.i.x.i.i.d.d.i.x.x.X.!   l                     ",
"                            X         c j ( <.i.i.i.i.i.i.i.i.i.i.x.k.8.i.i.i.i.i.i.i.i.i.w.w.w.-.w.] F @ 6 X                   ",
"                          X X       ^ ^ Q $.4.i.i.i.i.i.i.i.i.i.i.i.i.i.k.i.w.i.w.w.w.w.w.4.-.$.+.] $.! F P                     ",
"                  X               Q ~ ) $.i.k.i.i.i.i.i.i.i.i.i.i.i.i.i.i.w.4.d.i.i.w.w.-.$.+.] ` ] ` _ ) `         X         X ",
"                            g s c P _ ] 8.8.4.i.i.i.i.i.i.i.i.i.w.i.i.8.8.i.i.i.i.4.4.-.+.` ` ` ( _ _ ! Q ^ ^ N h D.Z.          ",
"                    X       M N Z ! ] $.8.k.8.8.8.8.8.8.4.4.4.4.4.8.4.4.4.8.4.4.<.X.] ] _ ( ( ( _ ) _ ^ ~ ^ [ U J ]   8         ",
"                      X   v * M N E ^ ( ! Q ~ ~ ! ! ! ! Q E Q Q Q Q Q Q E R Q ( ) ) ( ^ ^ ^ ^ ^ ! ( ( Q ! 4.d.m.$.^ F U         ",
"                    X     l M d i i i q q 9 8 9 8 8 8 3 3 3 3 3 > < < < , , 6 i A R Q E Q ! ! ~ ~ ( ( ! R ^ ] $.<.] $.$.        ",
"                      X   N R j i 5 3 3 3 > < > > > : - % % % % # % # @ @ @ + @ 3 N R R Q Q Q ! ! ! ( ! R ^ ] _ ] _ N B X       ",
"                          V R k h 9 6 3 3 3 , > > > > : : : - % % % # # % # # @ % 0 F R R ! E ! ! ( ( ! U ^ _ _ ] _ ! !         ",
"                          V d z j 0 3 6 3 3 < < , > : : : : : : % % % # @ # % % # < N R R E E ! ! ( ( R P Q ( ( ) ) ~ ^         ",
"                      X     x n x f i 8 3 3 3 < < > > > > > > : % - % # # % % % % < m U R R Q ! ! ^ ^ U F R ! ^ ( ( ~ ~         ",
"                X           y r a u i 0 9 9 3 3 < 3 < > > < , > > > : : : : % # # 8 A R R Q ! ! ! ! ! I F U ! ^ ^ ^ ^ ~         ",
"                            D G n s d i i 9 8 i l N c 9 < < 3 < 3 < > > > > > > , l I R R ! ! ! ! Q R L A P Q ! ~ ^ ! !         ",
"                            H K V f j h i i l F Q ^ E N 0 8 9 8 8 6 3 3 < < 3 9 c L R R E ! ! ! ! R P F V L R Q ! Q L L         ",
"                            I R I V L J F F R ~ ` ] ( R A V V V V N N N m N V F P R R R ! ! R R P H Z N N L U R Q U N V         ",
"                            m.B.-.U ! ~ ^ ~ ) o.` ( ~ ! Q Q Q Q R R R R R E E R R R E ! W R I F V n x x m L I U R R N A         ",
"                            U U U Q ! ( _ _ ] _ ) ! Q ! ! ! ! ! ! ! ! Q ! ! ! Q ! ! R E R I H n x g j n c F P I R P V B         ",
"                            l c N R ( _ ` ` _ ) ( ! E ! ! ! ! ! ! ! ! ! ! ! ! ! ! ! E R I D M j z f f x c A L I U P V B         ",
"            X   X         _ _ Q F ^ ` _ ` _ ( ( ! E R ! ! ! ! ! ! ! ! ! ! ! ! ! ! ! R L S x j s f f f x c C J P I L V V         ",
"      X               A.D.-.~ ^ ( ` _ _ _ ( ~ ~ Q R R ! ! ! ! ! ! ! ! ! ! ! ! ! ! R F M x f f f f g g x n V F L P L V V         ",
"                    < O N ! ( ( ] _ ( ) ( ^ ~ ! R R R ! ! ! ! ! ! ! ! ! ! ! ! ! R F M z f f f g f g z x x N F F L L V V         ",
"                o S.4.J V Q ) ` _ ( ) ( ! ~ ! E R R E ! ! Q ! ! ! ! ! ! ~ ~ ! R H M z f g g f f f z z x k N F F L L V V         ",
"              m.D.Q ^ ^ ^ _ ) ) ( ^ ( ^ ! ! E R R R R Q ! ! ! ! ! ! ! ! ~ ! R F M z f g g z f j z z x x j N F F J F V V         ",
"            Q L $.` ~ _ _ ^ _ ( ^ ! ! ! ~ ~ R R R R R Q ! ! ! ! ! ! ! ! ! R J N x f g g g z f x x x x x h m A F F F V V         ",
"        $.] D.! ! ^ ( ( ( ( ^ ! Q ! ! ~ ! E R R I U R ! E ! ! E W W ! E R P V x z z z z z z x x x x c x j N A A F A C V         ",
"      l D.( ( ^ ^ ( ( ( ^ ^ ! ! ! ! ! ! Q R R I I R E ! ! ! ! ! W W W R I D n z z z z z x x x x n n c x h c V A A A C B         ",
"      c l m U ^ ( ( ( ~ ! ! ! ! Q ! ! E R R R I I R ! ! ! ! ! ! ! R R R F M z z z x x x x x n n c c c x h c V Z A A V V         ",
"X     U U R ^ ^ ( ^ ~ ! ! Q Q ! ! ! ! ! R R P L P E ! R ! ! R ! E R R L V x z x x x x n n n n c M M m x h c V A A C V V         ",
"    c k C I R ! ~ ! E R R R R R R R R R R I L J P R ! R R R R R R R I F c x x x x x n n n n c m M M M x h c V A C C V V         ",
"  X k x V H P P Y Y P P P P P P H H H J F F A F I R R R R R R R R I F N x x x x x n n M M M M M M M m x i l N C Z Z V V         ",
"    N N f j x M M n n n n n n n x x x x x c N F U R R R R R R R U L Z n x x n n n c M M M M M M M M M k i x N Z Z Z Z V         ",
"  X   7 7 u u y y y y 7 5 5 5 5 5 7 9 0 i k A I R R R R R R R R P F m c x x n c c n c M M M M M M M c x i k N Z Z Z Z V         ",
"      J / q 2 4 1 5 5 > % : 2 2 6 9 i h c F I R R R E Q Q R R R L N c c x x c c c c m m c m m m c M M k d k N V A V V V         ",
"              7 y 7 8 9 9 q i k k c V F P U R R R Q Q R E Q R P F N c c c c c c c c m m m m m m m M m j i k m N V F Z Z         ",
"            N J x j j c N N C F F F L I U R R R R E Q Q Q Q I F N c c c c c c c c c m m m m m m c m c j d l N N N V m N         ",
"          B B A Z Z F J L L L P I I P I I U R R R R R Q E U P F m c c c c c c x c c m m m m m c m m m j i k n M c x c c         ",
"          V C N F F L L L L L L P L L P P P I R I I I U I L F N c c c c c c c c c c c c m m m c c m M j i f z z f u N c         ",
"          n x x k k j k k j j j h h h j j j j j j k j k x N Z c c c c c c c c c c c n c c m m c m M c f y y y 7 7 7 8           ",
"          9 y 2 - % @ @ @ @ @ @ @ @ @ + + @ @ @ @ $ + @ % 3 x n c c c n c c c c c c n n c m m m c m M x j k z j 2 3 8           ",
"          5 u , : - % % % % % % % % % % % % % % % % % % # > d c c c c c c c c c c c c c n m m m m m M c c c x x k               ",
"          k N u 8 7 3 3 3 < < 3 , < 3 3 < < < < 3 3 3 3 < 9 k c c c c c c c c c c n c c n n c m M m N N N c                     ",
"          c F y u i i i i q q q 0 q i q q q q q i i d h h k c c c c c c c c c c c c c m m m m m m N N m k l                     ",
"          n D y j M N N V V V N N N V N N N V N V N N N N m c x c c c c c c c c m m N N N N N m N B V c Z N                     ",
"          7 4 f c Z C Z Z Z C Z Z Z C Z Z C C Z A Z Z Z N m c c c n c c c c m N N N N N V V V V B N Z V n N                     ",
"          4 = f c Z C C C V C C C C C C C C C C V V C C C N m c c n n c c N N N V V V V V V V Z C V Z j s s                     ",
"          e ; u k N Z Z C Z C C C C C C C C C C C D Z C C V m n c c c N N V Z Z V V Z Z V V V V Z D S u 5 9                     ",
"          u a 7 k N D C C C C V C C C C Z D D D C D V N C C N m c N N N V Z Z Z V V V Z Z V V N N N N M u i                     ",
"          M X 0 i N C V Z C D Z C C C C Z D D D V D C C C Z m c m N N V V Z Z V V V V Z A A C N D V l h ( N                     ",
"            0 9 i k V N H V Z D C C C C C C C C D D Z Z V V N N N N V V V V V V Z N Z N C C Z A Z M a 7 9                       ",
"            Z ~ u i j n m V N Z V V V V V V V V V S V V N N N c m N N V Z Z Z Z B V N A C Z H V V f v T N                       ",
"              8 5 y s f f x x j z z z x x x x x k x x x x k j f j j z x x x c c x x M x n M V n M u & 1                         ",
"          X     N L u 5 u r e e r r r r r r r r r r r r r r r r r r r r r r a u p t e r u f c 8 s f z X                         ",
"  X                 c n n b 4 4 4 4 4 4 4 4 4 4 w w w w w w w w w w w w w w w w 4 4 4 7 M x c               X                   ",
"                                                                                              X                                 ",
"                          .                                                                                                     ",
"                                                                                                                                "
};
