/* XPM */
static char *_8293c73dd0b4377eb0fc6c02c595d3dkx0dnJeHdvPee047[] = {
/* columns rows colors chars-per-pixel */
"64 64 147 2 ",
"   c #010101",
".  c #0A0102",
"X  c #010800",
"o  c #01020A",
"O  c #0A020B",
"+  c #FC0101",
"@  c #FD0009",
"#  c #CE5F03",
"$  c #D55C03",
"%  c #D75F08",
"&  c #E05F04",
"*  c #FF5300",
"=  c #FB5E00",
"-  c #D06300",
";  c #E2650B",
":  c #FE6601",
">  c #F56C00",
",  c #FE6D02",
"<  c #F56D09",
"1  c #FD6D0A",
"2  c #E07203",
"3  c #EB7903",
"4  c #F57201",
"5  c #FD7201",
"6  c #F67B01",
"7  c #FA7F00",
"8  c #FA7D00",
"9  c #FF7D01",
"0  c #FE7E00",
"q  c #FF7906",
"w  c #FC7905",
"e  c #FD7C04",
"r  c #FF7E04",
"t  c #FD7B01",
"y  c #FA700B",
"u  c #FC710A",
"i  c #FF730A",
"p  c #FF760C",
"a  c #FE730A",
"s  c #FE7A0B",
"d  c #FF7E0B",
"f  c #FE7B08",
"g  c #FF6934",
"h  c #D28E05",
"j  c #DC8C05",
"k  c #C99907",
"l  c #D39401",
"z  c #D89705",
"x  c #D59B02",
"c  c #DD9B07",
"v  c #F78500",
"b  c #FB8102",
"n  c #FA8301",
"m  c #FD8100",
"M  c #FF8200",
"N  c #FD8002",
"B  c #FE8600",
"V  c #FF8700",
"C  c #FF8601",
"Z  c #FF8503",
"A  c #FF8304",
"S  c #FD8302",
"D  c #F48C00",
"F  c #FF8E01",
"G  c #FF8B05",
"H  c #FF8C05",
"J  c #FD8C01",
"K  c #FF8108",
"L  c #FF8D09",
"P  c #ED9704",
"I  c #E39D03",
"U  c #EA9F06",
"Y  c #F69300",
"T  c #FB9600",
"R  c #F99404",
"E  c #FF9706",
"W  c #FD9301",
"Q  c #FA9801",
"!  c #FA9803",
"~  c #FC9900",
"^  c #FF9B00",
"/  c #FF9F00",
"(  c #FF9C03",
")  c #FF9B07",
"_  c #FF9C04",
"`  c #FD9B01",
"'  c #FD9F0B",
"]  c #E2A107",
"[  c #EBA603",
"{  c #EDAC05",
"}  c #FBA103",
"|  c #FFA200",
" . c #F8A500",
".. c #F9A703",
"X. c #FDA702",
"o. c #FEA301",
"O. c #F6AD02",
"+. c #FAAA00",
"@. c #FBAB00",
"#. c #FDAB01",
"$. c #FFAB02",
"%. c #F9AD00",
"&. c #FDAD00",
"*. c #FFAC01",
"=. c #FFAE00",
"-. c #FFAE05",
";. c #FEAD02",
":. c #FFA608",
">. c #FFA009",
",. c #FFA90C",
"<. c #FDAD0A",
"1. c #EDBC08",
"2. c #F5B200",
"3. c #F6B300",
"4. c #F6B401",
"5. c #F8B200",
"6. c #FBB102",
"7. c #FCB100",
"8. c #FFB100",
"9. c #FFB200",
"0. c #FEB300",
"q. c #FFB300",
"w. c #FFB301",
"e. c #FDB302",
"r. c #FAB500",
"t. c #FBB500",
"y. c #F8B600",
"u. c #FFB401",
"i. c #FFB402",
"p. c #FCB004",
"a. c #FEB206",
"s. c #FDB301",
"d. c #F6B902",
"f. c #FBBA00",
"g. c #FDB901",
"h. c #FEB209",
"j. c #F3BA08",
"k. c #FEB90B",
"l. c #FDC400",
"z. c #F9CE06",
"x. c #FFD000",
"c. c #FFFF06",
"v. c #FDFF02",
"b. c #FFFF09",
"n. c #FF7C81",
"m. c #FF00F6",
"M. c #F9FFFF",
/* pixels */
"                                                    o   . . o X o       X       .   o o       . o .   o . o o                   ",
"                                                  X X .   o           o . .   o       . o     o   X     X                       ",
"                                                    : > u s > . X o . .   . X o       .     o   X o       . o                   ",
"                                                o + 4 , , 5 , : 5 5 b +   o . .           o .   . X e 1 * o                     ",
"                                                  5 4 1 4 , 5 5 5 , , , 5 w +   o . o .   o     i i , i 5 7   .                 ",
"                                                  5 , , , 0 m 1 1 1 , 4 : , 1 5 w , :   w , 4 5 : 4 5 , i 5 o                   ",
"                                                o 1 5 w 4 &.,., m Q t , w , 5 , i , , 5 4 : , , 1 4 , : : 4 c.                  ",
"                                                  , , , d 9.~ w T 9.C 4 } G , 5 : w , , i 5 w , b 9.R 5 4 i 5 .                 ",
"                                                : : w , F 5.H ,  .2.a 5 6 5 1 , 5 > 0 w 1 _ 2.w t t.:., , , 1                   ",
"                                                , , 4 : | f.m 5 a.+.> > 5 , 5 7 1 w -. .4 ~ t.C 5 o.;.w 5 , ,                   ",
"                                                : 4 5 , / #.w A i.Q & 4 1 5 E 9.C w 5.9.5 C 9.} y E i.C 4 4 5 +.                ",
"                                                5 , 5 , t e 1 m &.D - 3 , , L 9.~ , ) a.t w #.&.4 m t.Q , : , =                 ",
"                                                w , 4 5 : : , 5 5 , % 2 w 4 7 ;.$.i J i.W , o.a.e , W t 4 4 1 ,                 ",
"                                                g.h.o.| W m w : , w ; $ : : , $.5.0 0 9.>.w 7 C 5 > , 5 , 5 4 *                 ",
"                                                5.i.9.i.i.5.&.o.E F 3 # < 5 5 T 9.J , 0 t 5 , , i , 5 G Y | ;.                  ",
"                                                #.5.h.a.9.a.i.t.i.&.;.h 3 , , i K 5 4 5 , 4 5 0 F | &.;.9.y.-.m                 ",
"                                .       . o     9.9.9.9.9.9.9.9.9.t.9.x j i , , , , 4 5 C ~ &.i.i.9.9.5.9.9.&.+.X o o .   o     ",
"                                    o o o       9.9.9.9.9.9.9.9.5.e.5.[ j 3 5 t m W o.9.t.t.9.-.9.9.9.9.9.i.9.9.. o         o   ",
"                                .   X o         9.9.9.9.9.9.9.9.9.h.;.O.x l P ;.9.9.9.9.9.9.i.i.9.9.9.i.9.9.9.9.X X           . ",
"                                      .     X   9.9.9.9.9.9.9.9.9.a.9.9.{ x I i.f.t.9.-.h.a.9.;.9.9.9.9.9.5.5.5.o     X   o   X ",
"                                X o X o X     g.9.9.9.9.9.9.9.9.5.y.i.i.a.U l +.9.i.t.t.t.9.9.9.9.9.9.9.i.i.9.5.  o .   .       ",
"                                      . . o   9.9.9.9.9.9.9.9.9.9.t.5.4.9.<.k { &.9.9.i.i.5.5.i.9.9.5.9.9.9.9.9.t.. o   o     o ",
"                                    X   .   o 5.9.9.9.9.9.9.9.9.a.9.&.a.&.-.z I h.a.9.5.9.9.9.a.i.9.9.9.9.9.9.9.&.    O o   O   ",
"                                  .   o       i.9.9.9.9.9.9.9.9.a.9.9.9.i.y.] x t.t.5.9.9.9.9.9.i.5.9.9.9.9.9.i.9.          .   ",
"                                  . o         9.9.9.9.9.9.9.9.9.9.9.i.9.9.i.[ l #.9.i.5.i.9.9.i.9.t.9.a.5.9.9.5.k.5.  . o   .   ",
"                                  X .   o o g.a.9.9.9.9.9.9.9.9.9.i.-.9.9.5.O.c 1.5.a.t.i.9.i.i.9.5.9.9.5.i.9.i.&.&.X o     o   ",
"                                X o o .   o i.9.9.9.9.9.9.9.9.9.9.9.9.i.t.i.a.#.9.9.a.;.9.9.5.9.5.9.9.9.9.i.5.a.| q m     o   . ",
"                                o         m 9.t.9.9.9.9.9.9.9.9.9.2.g.i.&.&.9.l.g.9.i.&.h.i.a.5.5.9.9.9.9.i.9.| 5 , 5 A       o ",
"                                  O   X   9.4.9.9.9.9.9.9.9.9.9.i.9.;.9.a.;.i.i.$.9.2.9.;.i.a.&.9.9.9.9.9.5.-.v , 5 : t 0       ",
"                                o   . +.9.i.i.&.9.9.9.9.9.9.9.9.5.9.9.a.<._ F C   i.9.h.t.O.p.i.9.9.9.9.9.5.:.4 i 1 4 , q 0     ",
"                                . X &.i.h.5.5.a.9.9.9.9.9.9.9.9.i.5.&.W w , > e X h.i.5.5.i.2.a.9.t.9.&.i.a.W , , : i > 1 0   X ",
"                                t.e.9.&.9.i.y.5.9.9.9.9.9.9.9.9.9.| 7 : : , w w o a.i.9.p.;.t.9.&.t.9.&.5.a.v 1 , 6 > , 4 w T o ",
"    .   X o .     o .   X   z.a.i.9.9.9.9.9.9.9.t.a.9.t.5.9.9.t.o.5 , 4 , , 5 w   _ 9.a.t.i.9.t.i.9.i.a.5.a.t 4 , , 5 , 1 w t o ",
"  o o     o o o . o o   g.p.9.9.9.9.9.9.9.9.9.9.5.9.9.t.t.9.9.-.v , , 5 5 5 5 4   / 9.9.9.9.-.t.i.9.t.a.5.9.7 , 5 5 : i u 1 w   ",
"  . o X o   . . X o #.i.d.9.9.y.9.9.9.9.9.9.9.9.9.a.9.t.9.9.9.~ 4 , , , 5 4 , 5 X $.i.5.k.t.5.i.i.9.t.i.9.9.v 1 , , 1 i , 5 w o ",
"        o   X X X t.i.&.5.i.i.h.9.9.9.9.9.9.9.9.9.a.i.2.9.i.a.b , , , , , , , q   f.i.&.;.i.9.9.i.9.i.i.h.5.Q , , 1 5 > , t J . ",
"    X     . X k.a.i.5.9.i.i.9.2.9.9.9.9.9.9.9.9.9.9.9.5.9.i.<.w , , 4 5 , , , q g.-.g.i.g.5.-.i.9.9.i.9.a.t.o.t 5 , , 5 , w 0   ",
"o   o . X . T 5.&.a.-.t.-.5.9.h.9.9.9.9.9.9.9.9.9.9.9.i.9.5.| 5 , , 4 , , , i b 9.t.5.h.&.a.a.9.a.i.9.9.9.i.9.W , i , : i b o   ",
"o   X o t w m i.e.9.g.y.i.9.9.9.9.9.9.9.9.9.9.9.i.5.9.i.5.9.~ , , 5 5 , , i w ~ 9.f.9.a.t.t.t.i.9.t.a.9.5.9.i.#.v , 5 , e b .   ",
"  X   w i : 6 ,.9.i.&.9.a.e.i.i.9.9.9.9.9.9.9.9.i.t.9.9.2.i.~ i , , , , w i t 9.9.i.9.i.a.&.i.a.9.y.<.i.t.9.i.t.5.F 4 t Q X   . ",
"  o , i 4 , > o.&.i.y.9.9.9.t.5.9.5.i.9.t.2.9.a.&.i.t.t.e.t.o.4 , : w i 0 Q p.g.9.9.9.9.9.9.9.9.i.9.9.t.9.9.9.t.i.5.|       .   ",
". n., 4 1 5 , F i.&.i.5.5.h.9.i.9.9.9.5.i.h.5.y.h.o.9.a.9.9.-.q 5 t 5 F   2.i.&.9.9.9.9.9.9.9.9.5.h.f.9.i.y.i.&.9.9.o     .   o ",
"  w 5 , 5 , , 5 +.&.9.i.i.-.-.i.i.O.9.i.5.&.9.h.y.i.9.t.9.;.p./ o o X . o y.a.i.9.9.9.9.9.9.9.9.h.&.e.&.h.9.-.i.5.      o   . o ",
"o 5 1 4 : , , , v -.g.i.i.5.9.9.9.y.a.9.t.&.a.&.9.5.i.9.h.b.    X . X o -.a.i.9.9.9.9.9.9.9.9.9.i.a.2.g.2.g.+.i.O .   o   o     ",
"  : 5 5 i , 4 1 5 W i.2.5.i.9.9.9.i.a.2.g.&.f.j.i.i.i.t o   .   .     A 9.9.i.5.9.9.9.9.9.9.9.9.9.9.9.i.9.p.a.0   X             ",
"  t , , , 5 4 1 , 5 ) i.i.9.i.t.a.&.9.i.h.;.i.&.#.g.o X O   O   o   Z 2.y.9.9.9.9.9.9.9.9.9.9.9.t.a.9.&.i.e.9.X o .             ",
"  @ , , , , , 5 , , t _ -.&.i.5.9.9.i.9.5.i.#.t.x.  . X     X . o . -.h.i.9.e.5.9.9.9.9.9.9.9.9.g.t.-.d.9.5.v.o   X X . o   X   ",
"  . w w 5 , 5 , , 5 , 4 T 9.5.a.9.g.<.9.t.&.&.M.      o   . X o X 9.9.t.&.d.2.9.9.9.9.9.9.9.9.9.&.i.&.i.a.g.    .   o . o X o . ",
"  o + , , , 4 4 , : , 5 4 0 | 9.9.t.i.p.a.~ .     X           X b ,.g.9.9.h.;.i.a.9.9.9.9.9.9.9.g.2.9.i.5.m.o                   ",
"      v > , : , 4 4 , , , i 1 v / $.t.9.        o   o o     o o 0 W &.i.i.9.i.2.5.9.i.i.i.i.i.i.&.h.9.;.9.o                     ",
"X o   o o 4 i , 4 5 : > 4 , , , i 4 T .   o   . .     X .   X + , w ~ t.5.;.g.i.i.9.9.&.9.9.9.9.a.i.p.h.      o                 ",
"    X   X X , 5 , : 5 5 , : , i w o     X   O o X o   .   o X t 5 : 5 ' a.i.5.9.5.i.i.i.9.9.9.9.&.5.i.l..                       ",
"  . . o   o . g : i 4 1 : , w w     o o   .       o       O   t 4 i 1 5 F -.a.e.i.i.9.9.9.9.i.9.i.t.i.o   o                     ",
"  X   O           m 5 : 5 C     . o . X   o   .   .   . o . o : , > , : 5 6 T -.&.9.9.5.t.t.i.i.h.9. .  .     X                 ",
"  .         .       o   o   o . .       o   .     .   X o .   w , , u i 5 > 5 t Y | -.i.9.9.&.-.+.| o       o                   ",
".   o   o             .     o   X   . o   o   o . X     o .   4 , , , 5 , , , , , , 5 6 b m 0 w w T     o X   .                 ",
"                                                . o . o       q , 5 , < 5 , > 5 5 , 4 , 5 5 u , s   . . o . o .                 ",
"                                                o o   o o .     w , , 4 , , a i : 4 , i 1 , , a     . o o   o o                 ",
"                                                  o   .   o .   s 4 4 : 5 > > , w , : 5 > , 5 5 . . o   .   o                   ",
"                                                        .   o   . 0 , , u i 4 5 , 5 , 4 i 4 4 X . o   .                         ",
"                                                  o   o   . o o   X o w : , 4 , < , , , 5 * . . o o     o .                     ",
"                                                . . o         .     X . o , w , w w 5 m o   o   .       . o                     ",
"                                                      o     o o o   o     X .     .   . .   o . o       o                       ",
"                                                    . .       .     o   X o   o o .   o   o .   .                               "
};
