/* XPM */
static char *_10e7e7fecbd47f8b81fca8b5e59c775[] = {
/* columns rows colors chars-per-pixel */
"64 64 141 2 ",
"   c #8EA4B1",
".  c #95A9B4",
"X  c #9AACB6",
"o  c #94AEBB",
"O  c #9CAEBA",
"+  c #96B2BE",
"@  c #9CB1BD",
"#  c #A2B4BE",
"$  c #A9B6BF",
"%  c #A5B8BF",
"&  c #96B3C1",
"*  c #9BB6C2",
"=  c #9EB9C5",
"-  c #9EBAC8",
";  c #A4B6C2",
":  c #A9B7C1",
">  c #A2B9C7",
",  c #A3B9C7",
"<  c #A3B9C6",
"1  c #A0BAC7",
"2  c #A2BAC6",
"3  c #A3BBC7",
"4  c #A1B8C6",
"5  c #A5B9C4",
"6  c #A6B8C4",
"7  c #A7B9C5",
"8  c #A7BBC4",
"9  c #A6BAC5",
"0  c #A5B8C6",
"q  c #A6B8C6",
"w  c #A6B9C7",
"e  c #A7B9C7",
"r  c #A5BBC6",
"t  c #A4BAC7",
"y  c #A7BBC6",
"u  c #A5BDC7",
"i  c #A6BCC7",
"p  c #A5B9C4",
"a  c #A8B9C1",
"s  c #AAB8C1",
"d  c #ABB8C1",
"f  c #A8B9C3",
"g  c #ABB9C2",
"h  c #AAB8C3",
"j  c #A9BAC2",
"k  c #A8BBC2",
"l  c #AABBC3",
"z  c #ACB9C2",
"x  c #A9BCC3",
"c  c #A8B8C5",
"v  c #ABB9C4",
"b  c #A8BAC4",
"n  c #A9BAC4",
"m  c #A9BBC5",
"M  c #AABBC5",
"N  c #A9B9C6",
"B  c #A8BAC6",
"V  c #A9BBC7",
"C  c #ACBAC5",
"Z  c #ADBBC6",
"A  c #AEBAC6",
"S  c #A8BCC5",
"D  c #ABBCC4",
"F  c #AABDC4",
"G  c #ABBEC5",
"H  c #A9BDC6",
"J  c #A8BCC7",
"K  c #AABCC6",
"L  c #ABBCC6",
"P  c #ABBDC7",
"I  c #AABEC7",
"U  c #ACBDC5",
"Y  c #AEBCC5",
"T  c #ACBDC7",
"R  c #AFBDC6",
"E  c #AEBCC7",
"W  c #ADBEC6",
"Q  c #ACBFC6",
"!  c #AEBFC7",
"~  c #AABCC5",
"^  c #A1BBC8",
"/  c #A0BAC9",
"(  c #A3BAC8",
")  c #A1BBCA",
"_  c #A4BAC8",
"`  c #A5BBC8",
"'  c #A4BBC9",
"]  c #A5BBC9",
"[  c #A7BAC8",
"{  c #A0BCC8",
"}  c #A1BDC9",
"|  c #A2BCC9",
" . c #A3BDCA",
".. c #A3BFCB",
"X. c #A4BCC8",
"o. c #A7BDC8",
"O. c #A6BCC9",
"+. c #A6BCCA",
"@. c #A7BDCA",
"#. c #A6BDCB",
"$. c #A7BDCB",
"%. c #A4BECB",
"&. c #A5BCC9",
"*. c #A8BAC8",
"=. c #A8BBC9",
"-. c #A9BBC9",
";. c #ABBBC8",
":. c #ADBBC8",
">. c #A9BDC8",
",. c #AABCC8",
"<. c #ABBDC9",
"1. c #AABEC9",
"2. c #AABCCA",
"3. c #AABDCB",
"4. c #ACBCC9",
"5. c #AFBDC8",
"6. c #ACBEC8",
"7. c #ADBEC8",
"8. c #AEBFC9",
"9. c #ADBDCA",
"0. c #ACBECA",
"q. c #ACBEC9",
"w. c #B0BEC7",
"e. c #B0BEC7",
"r. c #B1BFC8",
"t. c #B0BEC9",
"y. c #B1BFCA",
"u. c #B3BFCB",
"i. c #B1BFC8",
"p. c #ADC0C7",
"a. c #ADC0C7",
"s. c #A6C0CD",
"d. c #AFC0C8",
"f. c #ACC0CB",
"g. c #AFC0CA",
"h. c #AEC0CA",
"j. c #B0C1C9",
"k. c #B2C0CB",
"l. c #B1C2CC",
"z. c #B5C5D1",
"x. c #B8C6D1",
/* pixels */
"@ # @ @ @ # ; # # ; ; # : : t.U a # f a ; =.v 7 ; # # # ; # # . , * = = = = * , ( * , ( ; * = * = , = , * * + + + + * & * * * * ",
"# @ @ # ; # # # ; ; ; # # ; ; ; $ # ; ; ; 7 7 ; ; # # @ # # ; @ , & * * = , * * * * , * , @ * * * * ; $.* = = * + + + + * * * * ",
"; # # # ; $ ; a ; ; a a $ v ; f # a ; ; 7 7 7 7 7 7 a # ; # 0 @ * * * * = = * * * * * @ , * * @ * [ = * * * * * + * + * * + + + ",
"$ $ # # $ ; a a a ; a a ; a $ ; ; v ; 7 =.7 [ [ a a a # ; # ; O = = * * * * * * + = * = * = + * ; , , ( = = | * + * + * * + + + ",
"$ # $ f C f a f a a 7 7 7 # 7 a 7 7 ; ; [ 7 7 7 a a a ; a ; ; @ , = * * * * * * @ = = $.* = * = * * = , = = = + * = o + * + * o ",
"$ : f f v C v f ; v 7 y L ; 1.L 7 7 ; 0 7 7 7 7 7 7 a ; a ; 7 @ = = * * * * * * = * = ( , = = = , $., * | = = * * * + * * * * o ",
"$ f : # # a v a a v v v 7 7 7 7 =.7 [ [ [ [ 7 [ 7 7 a # ; # ; O * = = = * + * * = = = = $.| = = ( * = = * * | = & + * = * * * o ",
"z $ $ f f $ ; v L v L v 7 1.7 L [ ; $.$., [ , [ 7 7 v a a # ; @ = = * * * + * * @ s.| , ( | * | , ( | ( | = = * = * * * + * * + ",
": $ a a f f f f a U L L v ; 5.v ; [ ( , , , $.[ 7 7 v v 7 7 ; @ = = = * = = = * * | ( | ( = , = ( = * ( - = = = = = * * + + + + ",
"f a f $ a $ a a v U f v 5.v 5.v [ [ , , , , $.[ 5.1.L v 7 ; ; * = = = = = = = * * = = = = = = = = = = = = * * & * = * * + * + + ",
"f a x # a # f f L 5.: C t.U U :.1.[ , , , , [ [ 7 a v f ; ; ; * = = = = = = = = , , = * = = = = = , = = * * = & & = = * + * + + ",
"f a f $ a $ f x v g.v 5.t.5.C t.1.[ , , , , , 7 L L L L 7 a ; * * = = = = = , , = = = * = = * * * = * * & & = & + * * * + + + + ",
"f f $ a $ f f f f U v 5.5.U C j.1.L [ [ , = ; 7 v L v f 7 ; * @ = = = = = = , , * * , ; = ( * = - - = = = * - = & * = & & & & & ",
"f f $ f $ U f f L U v U t.t.U 5.5.1.1.$.$., ; y L U C f v 7 , , = = = = = , , , , , ( , , , = ( = * * * * & * * * * = * * & + + ",
"C C : C a L f f U U U U g.g.U U 5.L g.$.y y , L L 5.C a 7 ; * * * * * = , , , , , ( , , = = = = - = * = * & * * * * = & * + + o ",
"f f f f a f f f U L j.U U U U U g.L 5.1.y $.a v a U L v v ; * * = = = , , , , = , [ ; , | = , = = * * = * * = & * * * & & & & o ",
"U a f v a f L f U U U U U t.t.U U p.U L L L v v 1.v 1.7 7 a ; @ = = , * , , [ ; , , , , , = = - = = * * * * * * & - & & * & o o ",
"L a a v a x L x f f L L U w.w.U U L L L L L L L 1.v v 7 7 ; 0 * , - , ; , , , , 7 [ , , , , - ( = = * * * * * & & - * & & + o + ",
"f a f f f x U U U U w.U w.t.j.j.U U L L L L L L L 7 v 7 7 a ; * , = = = , , , , , [ , , , , , , = = = * * = * * = * & + + + + o ",
"f f f f f L U U j.U U C U w.j.j.U p.U U L L L v L v v 7 7 ; ; @ , = * , , , , , , [ , , , , , , = = * * * * * & * & & & o o + o ",
"f f f f f L L L C U U w.t.w.w.U U U U U U U U U L v L a 7 ; ; @ [ = * = * , = , , , , ; , , , , ; = * * = = * * * * * * o o + o ",
"f f f f f L L L U U w.t.j.j.w.w.U U U L L L U 5.L v v a 7 7 a @ $., = = , , , , , [ , , , ( , , , , ; = ; = = * * * & * + + + o ",
": z z f C U C C w.U U U U U w.w.w.p.U U U L U U L 7 v a 7 a a * y = = = , , , , , [ 7 , , , , , ; ; * * * * * * + * * * + o + + ",
": z z f C U C C w.w.w.w.t.w.w.U x L U p.U U U L 1.7 v a a ; a * , * = = , , , , , 7 , ; , , , , , ; ; ; = = = = * * + & * * * + ",
"C z C f t.U U U U t.U w.w.t.C U U U U L U U U L L L a a ; # a O , * * , , , , , , , [ * [ , , , , 7 ; = , = * * = * * + * * + + ",
"z z C f U z U L U w.C U U t.U j.U U g.U L L U U L L v L a a 7 @ ; , , , , , , y , , 1.; , , 7 , 7 , ; = , , * * * = * * o + o o ",
"f z L f U f U U g.j.U U U 5.C 5.L L L L L U L f a a a a # # ; @ * * , * * , , , , , * $.  $., , , , , , = = = * * * * * * * o o ",
"f z f f U U U j.U U U g.5.t.C U U L f f U U U f a a a ; # # ; @ , , , , , , , , * , $.* [ , , ; , ; ; , * * = * * * * + * @ @ o ",
"f f f f f L v L L L U g.5.5.L v L L L x f f v v a v a a ; ; ; @ , 7 , , , , , , $., , , * , 7 [ , * * * * = = @ @ * * + @ o o o ",
"f f a f f L v L 1.L L 5.v L v 7 f a a a a a v v ; a a a a ; # # 7 , , , , , , * * , , , $.7 @ ; * * , , * * * * * = + * o * o @ ",
"f f a v v L v L 7 a a L a L L L v a a a L L L L ; a a a a a ; # 1.=.7 [ [ [ , , y * , , * , , * * , , * * @ * * * * @ * @ * @ @ ",
"f L v v a v a v 7 a a L ; 7 v a a a a v a ; ; a ; ; # # ; a ; ; g.1.7 7 7 , , 7 , * 7 ; ; , , * , * @ @ * * * @ @ @ * O * O @ @ ",
"l.g.L a v g.5.1.v 7 a a a v x v a 7 # # L v ; v 1.; ; v a # # f # # a v a L 1.y 1.y 7 7 7 7 ; ; @ ; ; * * * ; ; ; @ # ; # # @ @ ",
"L x L L 7 v 7 v 1.1.5.1.L 5.g.g.5.0.5.U h.g.L g.1.1.v 7 a a a a U p.U L L L L L 1.1.5.5.5.1.7 7 a ; ; ; ; 7 7 ; ; ; ; ; $ $ # # ",
"x L L g.L a v 1.1.1.1.5.L 1.g.g.5.0.5.5.5.5.1.L 1.h.5.7 a L L a $ x x f 5.L a L L L L v v 7 7 7 a ; ; # ; 7 a ; ; ; a a ; ; # $ ",
"L L v L L v 5.1.1.5.g.g.5.g.g.l.l.l.l.l.g.h.l.g.5.5.5.1.L L x f f U p.p.g.5.L L L v v a 7 7 7 7 a ; a ; ; ; ; a ; ; a ; # # # # ",
"L U v L L L h.1.h.h.g.g.l.l.l.l.l.5.g.l.g.5.g.g.5.1.1.5.5.v f x U L L L a v L v L v v v 1.v 7 ; ; 7 7 ; ; ; ; ; ; ; ; ; # # # # ",
"f U L L L g.h.5.5.5.g.g.l.l.l.l.z.0.j.l.g.g.g.g.0.5.0.5.1.L x a U x U p.7 L g.L L L 7 v v v 7 ; 7 ; ; ; a a ; ; ; ; ; # # # # # ",
"v v L L L 1.L 5.g.g.l.l.l.l.l.l.z.l.l.l.g.g.g.g.h.h.0.1.1.L x f L 5.5.5.L L L L g.L v a 7 7 v v 7 7 a a 7 7 7 ; ; ; ; # # # # # ",
"5.v L L 5.g.L 5.g.g.l.l.l.l.l.l.l.l.l.l.g.g.g.g.h.5.1.5.1.v x L 5.g.L v 1.1.L g.7 L v v v v a a 7 7 7 a ; ; ; ; ; ; 7 ; # # @ # ",
"7 L L L 5.5.5.5.g.g.5.l.j.l.l.l.z.z.l.g.g.g.5.5.h.5.1.5.5.L L L 5.5.g.L g.5.1.L L 7 v v a L L a a 7 ; ; ; ; ; ; 0 ; ; # O O # ; ",
"v L L L 5.g.g.g.g.g.5.l.g.l.l.z.z.l.l.l.g.g.g.g.h.5.5.5.5.L L L 1.5.g.L 5.L L L L L L v v v v a 7 7 ; ; 0 ; ; ; ; ; ; ; # @ @ # ",
"v L L L g.g.g.g.g.l.l.z.l.l.g.g.l.0.l.l.g.5.5.g.h.h.g.g.L L L L L 5.5.L 5.L L L v L L v L v a a v ; ; 7 ; # # ; ; ; ; ; # # # # ",
"7 L L 5.g.g.g.g.g.g.g.l.g.l.l.l.z.l.l.l.l.g.5.g.h.h.g.5.L L L a.v 5.5.L 1.L L v 7 L L v L v a 7 v ; ; 7 ; # ; # a ; ; # # # # # ",
"L L L 5.g.g.g.g.z.l.l.l.l.l.l.l.z.z.l.l.l.h.g.5.h.h.1.1.L L L L a 1.1.1.L 5.L L v 1.L L L v 7 L 7 7 a a # ; a # ; ; # # ; # @ O ",
"5.5.L L g.g.g.l.v L j.l.z.l.l.t.z.l.l.l.l.l.g.5.h.0.1.1.L L L L ; L L L L 5.L L L L L L L v v L 7 v L a ; a a ; ; ; # # # # # @ ",
"1.5.5.5.g.g.g.l.z.l.l.l.z.l.x.z.z.z.l.l.l.l.l.g.0.0.5.1.L v L U ; L L L v 5.L 1.L 7 L L v 7 v L v L v a a a a $ a ; # # # # # # ",
"v L 1.g.g.g.g.g.l.j.l.l.l.l.z.z.z.z.l.j.g.l.h.5.1.5.0.5.v v L 5.; 5.5.5.v 5.L 1.L a v L v L L L v L a a 7 a $ a ; # # # # # @ O ",
"L L 5.j.l.g.5.l.g.g.l.l.l.l.l.x.l.l.l.g.g.g.h.h.h.1.1.1.L 7 1.L a L p.L x x L p.L x L L L L x L U v 7 v a 7 7 ; ; ; ; # # @ O O ",
"L 5.5.U g.l.g.g.g.l.l.l.l.l.z.l.l.l.l.l.l.g.5.5.h.1.1.1.7 $.1.7 v U p.L L x L L p.L L p.p.L U U 5.v v 1.a a ; # # # # # # @ O O ",
"L 5.5.U 5.l.g.5.g.g.g.g.l.l.l.j.l.l.l.l.g.5.5.5.h.5.5.1.7 1.1.a L U U L U p.p.L p.L L L U L x L v a v L v a ; ; # # # # # @ O O ",
"L U 5.g.l.g.5.g.g.5.5.h.l.l.j.l.j.j.l.j.5.5.h.l.5.5.5.1.1.1.1.7 5.U L L U g.p.p.L x L x L x f f a a a L L a a a ; ; # # # @ O O ",
"5.5.g.g.g.g.1.g.g.5.g.h.l.g.g.l.l.l.j.g.g.g.h.h.1.1.1.5.1.v 7 7 5.5.5.L L L L L L L L L L L f f L v v L L a ; ; # ; ; ; @ O O O ",
"5.g.j.5.5.j.g.l.g.l.l.g.g.g.g.g.l.g.j.j.l.l.h.g.1.5.5.5.5.7 a 7 1.g.5.L x L U L U L L L U L f x L L v a v a ; ; # # ; # @ O O @ ",
"t.5.5.5.j.l.g.h.g.l.l.g.g.g.g.1.5.5.g.g.l.l.h.5.1.5.1.L 5.L a v L 5.U U L 5.5.5.L L x L U L x x a L f $ a a ; ; # # ; # # O @ @ ",
"t.v v j.z.l.5.l.l.g.g.l.l.g.g.g.g.g.g.g.g.g.5.5.L 5.L v L 5.L L U 5.5.U L 5.L L L L x L U U L f x p.L a a a ; ; ; ; ; # @ O O O ",
"5.U 5.g.5.g.l.l.g.g.l.l.g.5.g.h.l.l.l.g.g.l.g.5.L g.L v 5.5.L L 5.L g.L v 5.L g.1.v x U U f f U L x x a ; ; a a ; ; # # # @ @ O ",
"5.v v U g.l.l.l.g.5.5.g.l.g.g.g.g.g.g.g.l.l.g.5.g.l.g.L U U v L l.v v v L 5.a 7 5.L L L U f f f L L a a a v v # ; ; # # @ O O O ",
"5.L U 5.5.g.j.g.5.g.j.l.g.g.g.l.g.g.g.5.g.l.l.g.g.l.g.U U U L U l.U 5.g.1.L v 5.v v L L L 5.L L v v v a ; a a # ; # # # @ X O O ",
"5.5.g.j.5.5.g.5.5.j.l.l.g.5.g.l.g.g.5.5.5.g.g.5.j.g.U L U U U L g.v v v L L a v L L L L v v v v a a a v a # # ; # # @ # @ X O O ",
"U L U g.j.j.j.t.j.t.g.U g.g.g.U L 5.g.5.g.g.L x j.g.U U L U L f p.U L v v L L v L L L L 7 7 7 7 a a ; a v ; # # # # # @ O O O X ",
"U f U U U U t.w.t.t.g.U U U U U 5.5.5.L L L L L U U g.U f f L L $ f L f ; ; v L v v v L L 7 7 7 ; 7 a ; a ; # # # ; # @ O O O X ",
"p.L U U C C U w.w.t.j.w.U U U g.g.g.1.v v L U p.L L U U f f U U f f a a L L 5.L L L 1.v 7 7 7 ; ; 7 7 ; ; ; # ; # ; # # @ O O X ",
"l.p.L U w.j.j.w.t.w.U U U g.g.U 5.5.g.g.5.1.L x g.L U U U U U f f L L L L a v L v v v 7 v 1.1.7 v 7 @ ; v ; @ # # # # # @ X O X "
};
