/* XPM */
static char *a54bbf4d80604471ffa0aefba44e5f3aB6OMNFTsrewJCqY8[] = {
/* columns rows colors chars-per-pixel */
"64 64 229 2 ",
"   c #000000",
".  c #0A0103",
"X  c #050902",
"o  c #02010A",
"O  c #090109",
"+  c #0B0A0D",
"@  c #0C0907",
"#  c #13120B",
"$  c #060913",
"%  c #161613",
"&  c #2A170A",
"*  c #29150E",
"=  c #2A271E",
"-  c #332310",
";  c #141825",
":  c #241D23",
">  c #1B262D",
",  c #282625",
"<  c #28332B",
"1  c #2E2D35",
"2  c #3A3833",
"3  c #322F2E",
"4  c #72011B",
"5  c #693D1A",
"6  c #7C0123",
"7  c #7A0A28",
"8  c #4B3126",
"9  c #443936",
"0  c #4D3513",
"q  c #46403B",
"w  c #644724",
"e  c #704F32",
"r  c #433F40",
"t  c #31414A",
"y  c #484545",
"u  c #574A45",
"i  c #55514A",
"p  c #595A57",
"a  c #4F4B54",
"s  c #62514D",
"d  c #5F6052",
"f  c #6A6057",
"g  c #75664E",
"h  c #6C6E6B",
"j  c #686664",
"k  c #76746C",
"l  c #7B7B78",
"z  c #766D6D",
"x  c #83011D",
"c  c #832712",
"v  c #810023",
"b  c #860028",
"n  c #8A0428",
"m  c #93032B",
"M  c #990432",
"N  c #931634",
"B  c #A70336",
"V  c #B9033C",
"C  c #A83B24",
"Z  c #8B6B34",
"A  c #A37833",
"S  c #B37E35",
"D  c #935B28",
"F  c #B41144",
"G  c #C80846",
"H  c #D7094A",
"J  c #CD184C",
"K  c #DA1250",
"L  c #E50952",
"P  c #EA1856",
"I  c #F20E55",
"U  c #C92D54",
"Y  c #EA2664",
"T  c #F02663",
"R  c #E93868",
"E  c #94584C",
"W  c #8C7243",
"Q  c #977A4D",
"!  c #AC7D47",
"~  c #827E79",
"^  c #876C69",
"/  c #AC7976",
"(  c #E84274",
")  c #EA4C79",
"_  c #DB4A69",
"`  c #7F8877",
"'  c #DC9E37",
"]  c #C5813A",
"[  c #E9A93B",
"{  c #AA8541",
"}  c #B28F4F",
"|  c #AB9573",
" . c #B8AD75",
".. c #D19944",
"X. c #C59452",
"o. c #DCA54B",
"O. c #D7A652",
"+. c #D6AE4D",
"@. c #E8B955",
"#. c #F4BB58",
"$. c #EEB24E",
"%. c #D5B670",
"&. c #EFB764",
"*. c #F8C75A",
"=. c #EBC051",
"-. c #DFC17B",
";. c #FDCC64",
":. c #FCCB6C",
">. c #F6C864",
",. c #FCD365",
"<. c #FCD56C",
"1. c #FDDA6D",
"2. c #F7D967",
"3. c #FDCB73",
"4. c #FBCD7B",
"5. c #F6C471",
"6. c #EED578",
"7. c #F6D474",
"8. c #FDD572",
"9. c #FDDB73",
"0. c #FED47B",
"q. c #FDDB7A",
"w. c #F6D978",
"e. c #E6C663",
"r. c #FEE174",
"t. c #FDE07A",
"y. c #F8E066",
"u. c #7F7E83",
"i. c #EC5A83",
"p. c #F07292",
"a. c #DC7289",
"s. c #8C8C8B",
"d. c #878789",
"f. c #999A96",
"g. c #8E8F8C",
"h. c #A59794",
"j. c #AD9183",
"k. c #B0A89D",
"l. c #9599A5",
"z. c #9EA9A5",
"x. c #AAA6A7",
"c. c #B6B4AB",
"v. c #A9ACB3",
"b. c #AEB3B5",
"n. c #B3B3B5",
"m. c #BBBAB5",
"M. c #B5B5B9",
"N. c #B7B8BC",
"B. c #BABABC",
"V. c #BAB4B2",
"C. c #B6AEAA",
"Z. c #DE909E",
"A. c #CDB888",
"S. c #CDBA98",
"D. c #E69FAC",
"F. c #ED8FA9",
"G. c #C9B4AB",
"H. c #E9A7B5",
"J. c #F5ADBC",
"K. c #BFC0BB",
"L. c #D4C791",
"P. c #FBCC88",
"I. c #F8D683",
"U. c #FCD393",
"Y. c #FAD89A",
"T. c #ECC896",
"R. c #C2C1BE",
"E. c #C1C6B5",
"W. c #D1C4AD",
"Q. c #E5D3B5",
"!. c #F7DEBB",
"~. c #EDCFA5",
"^. c #F6EFAF",
"/. c #BCBEC1",
"(. c #B7B9C2",
"). c #C3BEC4",
"_. c #C1BDD4",
"`. c #F7BCC9",
"'. c #BCC4C5",
"]. c #C4C5C4",
"[. c #C9C6C5",
"{. c #CCCDCC",
"}. c #C8C8C9",
"|. c #D6CEC9",
" X c #D4D2CD",
".X c #D4D8CB",
"XX c #CBCBD1",
"oX c #D3CBD1",
"OX c #D4D4D3",
"+X c #DBD5D5",
"@X c #DCDBD5",
"#X c #DBDBDB",
"$X c #D5D6D9",
"%X c #CDD7CD",
"&X c #E2DEDB",
"*X c #E6DBD8",
"=X c #F4D7DD",
"-X c #F5CCD4",
";X c #D8E5D7",
":X c #E3E2DC",
">X c #E7E9DB",
",X c #F4E9CB",
"<X c #DBDBE4",
"1X c #E4DDE3",
"2X c #F9DDE4",
"3X c #E4E3E3",
"4X c #EAE6E3",
"5X c #ECEAE5",
"6X c #ECEBEB",
"7X c #E6E9E5",
"8X c #F3EDE4",
"9X c #F2EEEA",
"0X c #FBE0E5",
"qX c #ECF3EC",
"wX c #F4F3ED",
"eX c #FAF4EE",
"rX c #FBF9EA",
"tX c #EEEEF1",
"yX c #F2ECF3",
"uX c #EDF4F6",
"iX c #F5F4F2",
"pX c #FBF3F4",
"aX c #FCFBF5",
"sX c #FDF6FC",
"dX c #F4FCFC",
"fX c #FFFFFF",
"gX c #FDFEFE",
"hX c #FEFEFC",
"jX c #F5F7F5",
/* pixels */
"                                                                                                                                ",
"                                                                X                           X                                   ",
"                                                                                                                                ",
"                                                                                                                                ",
"                                                                fX      X                                                       ",
"                                                  X     fXhX  3XhX  3XfX  jX          X                                         ",
"                                                    6XfX  fX  hXhXX R.6X  iXfX                                                  ",
"                                                    fXfX  fX    aX    fX  #X  fXfX                                              ",
"                                                  wXhXfX          k aX#X*XaXjX3X                                                ",
"                                            X   hXo 1X7XgXl p 9 y j >X4X6XwX).hX>XX                                             ",
"                                          6XB.:XhX  k  .I.9.t.7.0.w.7.P.= m.  iX7X  gX  .                                       ",
"                                  X           #Xx.m.L.I.q.7.9.t.9.y.1.1.2.4.- >Xo :X;XfX                                        ",
"                                            [.:X$XoX>X}.S.9.q.w.E.B.[.}.A.1.1.} G.f. XfX                                        ",
"                                          }.[.@ | A.Q 9  X .W.@X+X< % s.@X'.2.9.%.).fX    o                                     ",
"                                        m.3Xy {.5XwXiX|.k.oX<X: | |.%XG.w :XC.9.9.Z sX6X                                        ",
"                                        #X, {.9XdXgXfXiX{.#Xf.x.5XiXsXiX6Xg :X<.9.9.y                                           ",
"                                        $X# :XeXgXG.h.dXoX$X, 7XjXgXhXfX5X+X3X%.0.9.%.qX  .                   .                 ",
"                                        OX= @XdXaX8 e wXXX#Xh 6X6XE E hXjX].:Xj | 7.8.s.        X                               ",
"                                        m.&X+X8XdXC c 4X#X+Xd 6X^ 8 E hXtXR.<Xp , 1 6.S.. @                                     ",
"                                        = |.c.|.yXtX4X1X).c.:XOXuX/ hXpX;X:Xk : , O < Q..     .         .   X                   ",
"                                    o . U. .V.$X>X%X].~ X   }.1XA.>X>X{.+X` p s * > : 2 O                                       ",
"                                    o   U.5.} i z ^ r 9 - 5 w ~ +X6XoXb.k u g *.*.{ * p               .                         ",
"                                      o P.>.&.X.D e A S { S A D - q g q u A <.<.,.,.5.&     X         (     . .                 ",
"                                .     o P.;.>.&.&.$.=.$.#.#.o.O.....o.@.:.<.<.1.0.1.P.f.o             P i.0X                    ",
"                                        0.:.:.>.;.;.*.;.;.;.;.<.,.,.<.<.<.<.1.<.9.<.U.    o   T fX  dXL P U J.-X2X  .           ",
"                                        0.3.:.:.:.:.<.<.<.<.<.<.<.<.<.<.<.<.1.1.2.I.U.      =XP G   Z.V H V i.p.`.              ",
"                                      aX4.3.:.:.:.:.8.8.8.9.9.8.9.1.9.9.<.1.1.1.2.0.Y.  .     `.M n N M F Y Y P i.=X    .     X ",
"                                  .   ,X4.4.8.:.8.<.<.<.9.9.9.9.<.9.9.9.9.9.1.2.2.0.!.          7 F 6 b b K P Y I ( F.2X        ",
"                                      !.4.3.8.:.8.<.<.<.1.1.1.1.<.<.9.t.9.9.1.2.1.4.eX    O   H.4 6 6 6 m G I L G I R R H.    . ",
"                                      !.4.0.3.8.<.<.<.>.@.+.=.<.9.9.9.t.t.r.1.1.<.P.          v b 6 4 x M H L J J T ( p.J.      ",
"                                  .   U.0.4.3.<.<.<.1.9.9.1.9.9.9.9.9.t.t.r.1.1.8.4.hX    X   x n 6 6 n B H B U D.H.`.J.        ",
"                                      P.4.4.8.<.9.8.8.9.9.9.9.q.9.9.t.t.t.r.1.1.;.-.{.      }.e m B m b m G B H._ K H.  O       ",
"                              o     fX%.3.4.<.<.1.<.8.q.<.9.9.9.9.w.t.9.1.1.2.Q.k.  M.      f W ^ m v v b 7 G =XaXJ.a.J D.      ",
"                                  o S.  @.3.4.<.<.8.0.8.9.9.1.9.9.9.1.r.w.6.C.    & ,X    g W h d.  G.pXhX  hXH       `.) =X    ",
"                                . ,XT.    p >.<.Y.Y.Y.I.w.<.1.<.1.7.I.L.%       O.<.9.fXsXj.n.              pXH         =XfX  . ",
"                              o rXP.~.      u.+X[.@X@X&Xc.*X8Xi #   + X   .   Q 8.9.2.9.W.          .       -Xp.fX              ",
"                                *.O.U.        :X4Xm.j l @X4X@X:X    + $ X . o ,.9.8.2.;.<.rX            .     wX      .         ",
"                          o X ^.o.| T.    o   V.s.  OXV.q 4X:X  o     @ X   { 8.2.<.3.Q.[ <.o       .     .     .               ",
"                      X   o   ,Xo.! E.o           1X4X3 1 s.g.        .   o #.e.!.5X.X] ' >.                                    ",
"                              . @.O.# OX{. Xx.h i R.:X% # : y h f.oX8X9XiXtXR.2   o 0 ' @.    .                   .             ",
"                                  $.    f E.h.'.B.c.m.[.|.@X+Xm.oXf.              o & @.    .                                   ",
"                                  . O   /.*X:X&X:X&X:X5X9XwXwXaX6X3X  X X             a                                         ",
"                      X     X     v.  <X.X1X4X4X4X5X5X9XwXaXiXaX].hX X  X X                   o                                 ",
"                                  #     c.7X4X7X5X9X5XeXeXiXiXhXiX$X  X   X           g..                                       ",
"                                  .   :XV.:X7X5X5X5XwXwXaXaXiXjXR.6X=               . o                                         ",
"                                o       @X X5XwXwXwXaXwXaXaXc.iX6Xl         X             % B.yX                                ",
"                                        B.$XW.XX X XOX[.[.$XOX{.q                         b.[.                                  ",
"                            a             '.p OXOXB.{.l {.X                         .   pX                                      ",
"                            +                                                   3X    iX                                        ",
"o                             X                                     % b.> d.fXqX                                                ",
"  +X].(.N.M.N.n.n.m.M.M.m.n.OX#X3X$Xs.    , x.X         f.j n.{.X h l.; 1 uX                                                    ",
"^.{._.K.N.(.n.N.N.b.n.M.M.M.N.M.n.n.}.OX[.].[.7X$Xu.z           c.O $ > t (.[.[.OX7XfX    X                                     ",
"          fXXXB.M.M.N.N.n./.n.M.M.N.M.N.M.N.N.n.n.N.n.y     X X x.o ; t a     .                                                 ",
"                  }.M.M.M.M.N.M.M.n.N.M.n.M.M.M.M.n.    X       x.+     z.n.$X                                                  ",
"o   O             fX].M.n.M.M.M.M.M.M.N.M.N.M.N.N.+             y   # , h OX                                                    ",
"                                tXjXtX{.{./.N.B.}.].'.m./.{.6X#Xv.2 % 3 f.tX                                                    ",
"                                                                                                                                ",
"                                                                                                                                ",
"                                                                                                                                ",
"                                                                                                                                ",
"                                                                                                                                ",
"                                                                                                                                ",
"                                                                                                                                ",
"                                                                                                                                "
};
